<?xml version="1.0" encoding="UTF-8"?>
<!DOCTYPE svg PUBLIC "-//W3C//DTD SVG 1.1//EN" "http://www.w3.org/Graphics/SVG/1.1/DTD/svg11.dtd">
<svg version="1.1" xmlns="http://www.w3.org/2000/svg" xmlns:xlink="http://www.w3.org/1999/xlink" x="0" y="0" width="32" height="32" viewBox="0, 0, 32, 32">
  <g id="Layer_1" transform="translate(-80, -32)">
    <path d="M84,32 L108,32 C110.209,32 112,33.791 112,36 L112,60 C112,62.209 110.209,64 108,64 L84,64 C81.791,64 80,62.209 80,60 L80,36 C80,33.791 81.791,32 84,32 z" fill="#A54E33"/>
    <g>
      <text transform="matrix(1, 0, 0, 1, 96, 48)">
        <tspan x="-11.267" y="2" font-family="LucidaGrande-Bold" font-size="10" fill="#FFFFFF">&lt;p&gt;</tspan>
      </text>
      <path d="M91.598,50 L85.817,47.109 L91.598,44.219 L91.598,45.161 L87.711,47.104 L87.711,47.114 L91.598,49.058 z M93.59,51.929 L93.59,44.639 L95.036,44.639 L95.036,45.649 Q95.592,44.517 96.789,44.517 Q97.755,44.517 98.31,45.225 Q98.864,45.933 98.864,47.173 Q98.864,48.521 98.239,49.321 Q97.614,50.122 96.564,50.122 Q95.719,50.122 95.036,49.458 L95.036,51.929 z M95.036,48.599 Q95.563,49.185 96.159,49.185 Q96.691,49.185 97.008,48.669 Q97.326,48.154 97.326,47.295 Q97.326,45.649 96.266,45.649 Q95.626,45.649 95.036,46.475 z M100.397,50 L106.178,47.109 L100.397,44.219 L100.397,45.161 L104.284,47.104 L104.284,47.114 L100.397,49.058 z" fill="#FFFFFF"/>
    </g>
  </g>
</svg>
