<?xml version="1.0" encoding="UTF-8"?>
<!DOCTYPE svg PUBLIC "-//W3C//DTD SVG 1.1//EN" "http://www.w3.org/Graphics/SVG/1.1/DTD/svg11.dtd">
<svg version="1.1" xmlns="http://www.w3.org/2000/svg" xmlns:xlink="http://www.w3.org/1999/xlink" x="0" y="0" width="32" height="32" viewBox="0, 0, 32, 32">
  <g id="Layer_1" transform="translate(-62, -124)">
    <path d="M66,124 L90,124 C92.209,124 94,125.791 94,128 L94,152 C94,154.209 92.209,156 90,156 L66,156 C63.791,156 62,154.209 62,152 L62,128 C62,125.791 63.791,124 66,124 z" fill="#A54E33"/>
    <path d="M68,129.781 L88,129.781 L88,149.853 L68,149.853 L68,129.781 z" fill="#FFFFFF"/>
    <path d="M70.5,132.5 L86.5,132.5 L86.5,148.5 L70.5,148.5 L70.5,132.5 z" fill-opacity="0" stroke="#616264" stroke-width="0.5"/>
    <g>
      <path d="M70.5,132.5 L74.5,132.5 L74.5,136.5 L70.5,136.5 L70.5,132.5 z" fill-opacity="0" stroke="#616264" stroke-width="0.5"/>
      <path d="M74.5,132.5 L78.5,132.5 L78.5,136.5 L74.5,136.5 L74.5,132.5 z" fill-opacity="0" stroke="#616264" stroke-width="0.5"/>
      <path d="M78.5,132.5 L82.5,132.5 L82.5,136.5 L78.5,136.5 L78.5,132.5 z" fill-opacity="0" stroke="#616264" stroke-width="0.5"/>
      <path d="M82.5,132.5 L86.5,132.5 L86.5,136.5 L82.5,136.5 L82.5,132.5 z" fill-opacity="0" stroke="#616264" stroke-width="0.5"/>
    </g>
    <g>
      <path d="M70.5,136.5 L74.5,136.5 L74.5,140.5 L70.5,140.5 L70.5,136.5 z" fill-opacity="0" stroke="#616264" stroke-width="0.5"/>
      <path d="M74.5,136.5 L78.5,136.5 L78.5,140.5 L74.5,140.5 L74.5,136.5 z" fill-opacity="0" stroke="#616264" stroke-width="0.5"/>
      <path d="M78.5,136.5 L82.5,136.5 L82.5,140.5 L78.5,140.5 L78.5,136.5 z" fill-opacity="0" stroke="#616264" stroke-width="0.5"/>
      <path d="M82.5,136.5 L86.5,136.5 L86.5,140.5 L82.5,140.5 L82.5,136.5 z" fill-opacity="0" stroke="#616264" stroke-width="0.5"/>
    </g>
    <g>
      <path d="M70.5,140.5 L74.5,140.5 L74.5,144.5 L70.5,144.5 L70.5,140.5 z" fill-opacity="0" stroke="#616264" stroke-width="0.5"/>
      <path d="M74.5,140.5 L78.5,140.5 L78.5,144.5 L74.5,144.5 L74.5,140.5 z" fill-opacity="0" stroke="#616264" stroke-width="0.5"/>
      <path d="M78.5,140.5 L82.5,140.5 L82.5,144.5 L78.5,144.5 L78.5,140.5 z" fill-opacity="0" stroke="#616264" stroke-width="0.5"/>
      <path d="M82.5,140.5 L86.5,140.5 L86.5,144.5 L82.5,144.5 L82.5,140.5 z" fill-opacity="0" stroke="#616264" stroke-width="0.5"/>
    </g>
    <g>
      <path d="M70.5,144.5 L74.5,144.5 L74.5,148.5 L70.5,148.5 L70.5,144.5 z" fill-opacity="0" stroke="#616264" stroke-width="0.5"/>
      <path d="M74.5,144.5 L78.5,144.5 L78.5,148.5 L74.5,148.5 L74.5,144.5 z" fill-opacity="0" stroke="#616264" stroke-width="0.5"/>
      <path d="M78.5,144.5 L82.5,144.5 L82.5,148.5 L78.5,148.5 L78.5,144.5 z" fill-opacity="0" stroke="#616264" stroke-width="0.5"/>
      <path d="M82.5,144.5 L86.5,144.5 L86.5,148.5 L82.5,148.5 L82.5,144.5 z" fill-opacity="0" stroke="#616264" stroke-width="0.5"/>
    </g>
    <path d="M70.5,136.5 L86.5,136.5" fill-opacity="0" stroke="#616264" stroke-width="1.5"/>
  </g>
</svg>
